# xmcd
#
# Track frame offsets:
#	150
#	18455
#	41980
#	65532
#	80825
#	100463
#	113527
#	124894
#	144459
#	154944
#	167982
#	185886
#	213462
#	223205
#
# Disc length: 3225 seconds
#
# Revision: 1
# Processed by: cddbd v1.5.1PL0 Copyright (c) Steve Scherf et al.
# Submitted via: EasyCDDAExtractor 6.0.0.1
#
DISCID=de0c970e
DTITLE=Chuck Berry - Rock'N Roll Music
DYEAR=1900
DGENRE=Blues
TTITLE0=School Day
TTITLE1=In The Wee Wee Hours
TTITLE2=Johnny B Goode
TTITLE3=Carol
TTITLE4=Hootchie Coochie Man
TTITLE5=Sweet Little Sixteen
TTITLE6=Rock And Roll Music
TTITLE7=My-Ding-A-Ling
TTITLE8=Maybelline
TTITLE9=Too Muche Monkey Business
TTITLE10=Nadine (Is It You?)
TTITLE11=Reelin' and Rockin'
TTITLE12=Johny B Goode (Reprise)
TTITLE13=Bonsoir Cherie
EXTD=
EXTT0=
EXTT1=
EXTT2=
EXTT3=
EXTT4=
EXTT5=
EXTT6=
EXTT7=
EXTT8=
EXTT9=
EXTT10=
EXTT11=
EXTT12=
EXTT13=
PLAYORDER=
